<?xml version="1.0" standalone="no"?>
<!DOCTYPE svg PUBLIC "-//W3C//DTD SVG 20010904//EN"
 "http://www.w3.org/TR/2001/REC-SVG-20010904/DTD/svg10.dtd">
<svg version="1.0" xmlns="http://www.w3.org/2000/svg"
 width="450.000000pt" height="450.000000pt" viewBox="0 0 450.000000 450.000000"
 preserveAspectRatio="xMidYMid meet">
<metadata>
Created by potrace 1.14, written by Peter Selinger 2001-2017
</metadata>
<g transform="translate(0.000000,450.000000) scale(0.100000,-0.100000)"
fill="#000000" stroke="none">
<path d="M2650 4423 c-96 -35 -172 -93 -255 -198 -22 -27 -44 -53 -48 -56 -5
-3 -9 -10 -10 -15 0 -5 -17 -34 -36 -64 -36 -55 -36 -55 -86 -54 -28 0 -57 4
-64 9 -9 5 -12 4 -8 -1 3 -5 -3 -10 -14 -10 -10 0 -19 3 -19 6 0 3 -8 6 -17 7
-10 1 -67 13 -128 25 -60 13 -121 23 -135 22 -14 0 -36 -2 -51 -2 -14 -1 -47
-16 -75 -34 -27 -18 -51 -33 -54 -33 -22 -6 -59 -26 -65 -35 -3 -5 -12 -7 -18
-4 -7 4 -9 4 -5 0 3 -4 -3 -20 -15 -34 -32 -38 -131 -135 -157 -152 -12 -8
-37 -28 -55 -45 -34 -31 -81 -71 -149 -127 -62 -51 -121 -112 -125 -128 -2 -8
-8 -31 -13 -50 -5 -19 -10 -44 -12 -55 -2 -16 -16 -82 -31 -150 -1 -5 -5 -27
-9 -47 -5 -24 -12 -35 -20 -31 -6 4 -5 -1 3 -10 11 -14 11 -20 1 -32 -7 -8
-17 -12 -23 -8 -6 3 -7 1 -3 -6 4 -6 12 -9 17 -6 13 9 11 -9 -3 -23 -7 -7 -8
-12 -4 -12 5 0 2 -8 -5 -17 -12 -14 -12 -16 0 -8 10 5 12 4 7 -3 -7 -12 -11
-28 -22 -87 -2 -16 -9 -47 -15 -67 -5 -20 -9 -40 -8 -45 1 -4 0 -11 -1 -15 -1
-5 -4 -12 -5 -18 -1 -5 -3 -11 -5 -12 -4 -6 -15 -56 -30 -145 -7 -40 -16 -73
-20 -73 -4 0 -7 -8 -7 -17 1 -56 -4 -84 -13 -78 -5 3 -7 0 -4 -9 3 -8 2 -21
-2 -27 -4 -7 -9 -24 -10 -38 -2 -14 -5 -35 -7 -46 -2 -11 -7 -41 -12 -67 -4
-26 -11 -46 -15 -43 -4 2 -5 -7 -2 -22 3 -15 1 -24 -5 -20 -5 4 -8 -7 -5 -25
4 -27 2 -30 -14 -25 -17 6 -17 6 -3 -5 11 -9 14 -20 9 -33 -4 -11 -6 -23 -3
-27 2 -5 0 -8 -6 -8 -5 0 -10 -8 -10 -17 0 -22 -8 -68 -11 -68 -1 0 -3 -9 -5
-20 -6 -46 -16 -89 -23 -99 -3 -6 -5 -21 -3 -33 1 -13 -1 -23 -6 -23 -4 0 -9
-12 -9 -27 -3 -47 -10 -93 -17 -100 -4 -3 -7 -18 -7 -33 0 -15 -3 -30 -7 -33
-3 -4 -8 -22 -10 -39 -2 -18 -6 -40 -9 -48 -4 -8 -8 -28 -10 -45 -6 -48 -10
-64 -16 -71 -4 -3 -4 -12 -1 -20 3 -8 1 -14 -4 -14 -5 0 -9 -12 -9 -28 -1 -46
-35 -187 -47 -194 -9 -6 -9 -8 0 -8 9 0 10 -7 3 -24 -5 -13 -6 -27 -3 -30 4
-3 1 -6 -6 -6 -7 0 -9 -5 -5 -11 3 -6 0 -15 -7 -20 -11 -7 -11 -9 -1 -9 8 0
10 -5 5 -12 -4 -7 -9 -24 -11 -38 -1 -14 -5 -32 -9 -40 -6 -15 -8 -26 -11 -63
-1 -11 -7 -16 -14 -11 -10 5 -10 4 -1 -6 7 -8 9 -19 4 -29 -10 -18 -11 -22
-11 -52 0 -11 -5 -17 -10 -14 -6 3 -10 2 -10 -4 0 -5 5 -13 11 -16 7 -5 5 -13
-5 -24 -9 -10 -13 -21 -9 -24 3 -4 6 -20 5 -37 0 -16 4 -30 9 -30 6 0 8 -4 5
-8 -3 -5 6 -15 19 -22 14 -7 25 -17 25 -22 0 -5 9 -6 20 -3 15 5 20 2 21 -12
0 -10 3 -13 6 -6 3 9 10 10 24 3 14 -8 19 -7 19 1 0 6 8 3 17 -8 10 -10 15
-14 10 -7 -5 7 20 5 70 -7 98 -24 114 -27 136 -28 12 -1 16 -5 11 -13 -6 -10
-5 -10 8 -1 18 15 29 7 21 -15 -4 -13 -1 -12 11 3 14 15 16 16 13 3 -4 -11 0
-15 11 -13 9 1 24 -3 32 -9 13 -10 13 -9 0 8 -14 17 -13 18 7 12 12 -4 31 -9
44 -11 31 -6 33 -10 34 -71 1 -34 -2 -50 -8 -42 -15 22 -3 -5 18 -40 11 -17
28 -35 37 -38 9 -3 16 -10 14 -17 -1 -7 -1 -9 1 -4 7 12 41 8 46 -5 4 -10 6
-10 6 0 1 6 6 12 12 12 5 0 7 -5 4 -11 -4 -6 3 -5 14 3 18 11 23 11 31 -2 9
-13 10 -13 10 0 0 13 1 13 10 0 5 -8 10 -10 10 -4 0 13 50 13 50 0 0 -8 3 -8
8 -1 4 6 44 11 90 11 69 -1 82 -3 77 -16 -4 -13 -4 -13 7 0 14 16 128 23 128
8 0 -4 5 -8 11 -8 5 0 8 4 5 9 -4 5 2 8 11 7 13 -2 18 -12 17 -34 -1 -34 10
-34 12 -1 3 35 4 39 13 39 5 0 12 -8 14 -17 4 -17 5 -17 6 0 0 10 5 16 11 12
5 -3 8 -11 6 -18 -1 -7 -1 -9 1 -4 3 4 9 4 15 1 5 -3 2 -15 -9 -27 l-18 -22
23 19 c15 13 19 23 12 30 -17 17 -11 29 7 15 11 -10 14 -10 9 -1 -4 6 -3 12 2
12 15 0 22 -28 9 -33 -7 -3 -2 -4 10 -4 15 1 19 5 13 11 -17 17 -11 22 30 21
22 0 40 -4 40 -8 0 -5 -14 -6 -31 -3 -17 2 -28 2 -25 -2 15 -14 57 -12 62 3 3
8 10 15 16 15 5 0 6 -4 3 -10 -3 -5 -1 -10 5 -10 6 0 8 -5 4 -12 -4 -7 -3 -8
4 -4 6 4 9 14 6 24 -5 16 -5 16 6 0 8 -14 7 -24 -6 -45 l-16 -28 21 25 c11 14
19 31 18 39 -3 18 32 23 49 6 11 -11 11 -15 -1 -25 -8 -7 -15 -16 -15 -20 0
-5 14 5 30 20 21 20 37 27 53 23 12 -2 30 -5 40 -5 9 1 17 -3 17 -8 0 -5 -9
-7 -20 -5 -13 2 -18 0 -14 -7 4 -6 1 -9 -7 -6 -8 3 -13 11 -12 17 4 18 -19 8
-44 -18 -31 -32 -29 -41 2 -11 20 19 27 21 40 10 11 -10 18 -10 29 -1 11 10
17 8 25 -6 6 -11 11 -13 11 -5 0 7 5 10 12 6 7 -4 8 -3 4 5 -4 6 -12 8 -18 5
-7 -4 -8 -2 -4 5 4 6 18 9 34 5 15 -3 37 -6 50 -7 25 -1 28 -16 10 -37 -11
-12 -10 -12 3 -2 9 6 20 8 24 4 5 -4 6 0 2 9 -4 13 -1 16 14 12 10 -3 19 -9
19 -14 0 -5 8 -9 18 -9 14 0 15 2 2 10 -12 7 -10 9 8 7 12 0 21 -7 19 -13 -1
-7 2 -13 7 -12 5 0 13 -6 18 -14 8 -10 9 -10 5 2 -2 8 -10 14 -16 12 -7 -1
-10 2 -7 7 4 6 18 6 35 1 16 -4 32 -6 35 -2 3 3 6 1 6 -5 0 -5 14 -10 30 -11
49 -3 60 -5 60 -11 0 -3 14 -7 30 -8 67 -5 80 -7 80 -16 0 -5 9 -7 21 -4 14 4
19 1 16 -7 -3 -6 3 -12 14 -12 14 0 15 3 7 13 -8 10 -7 12 6 7 14 -5 20 -16
18 -34 0 -3 8 -6 19 -6 19 0 19 1 3 13 -16 12 -15 13 8 13 17 0 28 -6 31 -17
4 -16 5 -17 6 -1 0 9 16 24 35 33 34 16 44 33 52 89 5 37 22 49 41 30 8 -8 19
-14 26 -14 6 0 2 6 -9 14 -18 14 -18 15 4 13 12 -1 22 -5 22 -9 0 -4 5 -8 11
-8 5 0 7 4 4 10 -3 5 -2 10 4 10 5 0 12 -6 14 -12 4 -10 6 -10 6 0 1 6 6 12
12 12 5 0 7 -5 3 -12 -5 -7 -3 -8 7 -2 19 11 90 14 83 3 -3 -5 0 -9 5 -9 6 0
11 4 11 9 0 11 100 9 118 -2 7 -5 10 -12 8 -16 -3 -4 0 -13 5 -21 7 -12 8 -11
6 5 -1 11 -6 25 -9 31 -4 6 12 10 47 10 30 0 51 -4 49 -8 -3 -4 0 -8 5 -8 6 0
11 4 11 10 0 5 10 9 23 8 55 -2 78 2 71 14 -5 8 -2 9 9 5 9 -3 16 -3 16 1 -3
18 2 33 9 28 5 -3 9 0 9 7 1 7 2 31 4 55 1 23 7 42 13 42 7 0 7 3 1 8 -15 11
-18 42 -5 57 7 8 7 15 1 19 -11 7 -11 155 1 162 4 3 2 13 -4 24 -9 14 -9 22 1
33 7 10 8 17 2 21 -13 9 -10 156 4 156 6 0 7 3 0 8 -15 11 -18 42 -5 57 7 8 7
15 1 19 -13 9 -10 156 4 156 6 0 7 3 0 8 -15 11 -18 42 -5 57 7 9 8 15 1 20
-12 7 -12 73 0 81 5 3 3 13 -3 24 -9 14 -9 22 1 33 7 10 8 17 2 21 -13 9 -10
156 4 156 6 0 7 3 0 8 -15 11 -18 42 -5 57 7 8 7 15 1 19 -13 9 -10 156 4 156
6 0 7 3 0 8 -15 11 -18 42 -5 57 7 9 8 15 1 20 -14 8 -11 88 3 97 8 5 7 8 -1
8 -7 0 -13 9 -13 20 0 11 6 20 13 20 7 0 8 3 2 8 -14 10 -17 39 -5 47 6 4 5
13 -3 26 -10 16 -9 21 3 29 9 6 10 10 3 10 -17 0 -13 62 6 85 15 18 15 19 0 7
-14 -11 -16 -9 -16 13 -1 14 3 28 8 31 5 3 3 13 -3 24 -9 14 -9 22 1 33 7 10
8 17 2 21 -13 9 -10 156 4 156 6 0 7 3 0 8 -16 11 -18 44 -3 53 7 5 8 9 2 9
-6 0 -11 23 -12 55 0 40 3 53 11 49 8 -5 8 -2 0 7 -16 16 -17 33 -1 23 7 -5 8
-3 2 7 -14 23 -15 52 -2 61 7 4 8 8 3 8 -15 0 -16 183 -1 192 8 5 8 8 0 8 -15
0 -17 70 -1 70 7 0 8 3 2 8 -16 11 -17 34 -3 43 7 5 8 9 2 9 -6 0 -11 23 -11
53 -2 72 -6 117 -13 117 -3 0 -16 18 -30 40 -14 22 -28 40 -32 40 -5 0 -8 6
-8 14 0 8 -7 16 -15 20 -8 3 -15 11 -15 18 0 7 -9 19 -21 26 -12 7 -18 16 -15
19 3 4 -3 12 -14 20 -11 8 -20 20 -20 27 0 8 -7 17 -16 20 -9 4 -14 13 -10 22
3 8 2 13 -3 10 -5 -3 -30 21 -55 54 -26 33 -44 60 -40 60 4 0 -5 9 -20 21 -14
11 -24 25 -21 30 4 5 -1 9 -10 9 -11 0 -15 5 -11 16 3 8 2 12 -4 9 -6 -3 -13
2 -17 12 -3 10 -12 22 -20 26 -7 4 -13 12 -13 17 0 6 -16 26 -35 47 -19 20
-31 41 -28 46 3 6 2 8 -3 5 -5 -3 -17 3 -26 14 -10 10 -15 18 -10 18 14 1 -83
49 -100 50 -21 0 -21 1 -8 35 30 80 33 222 6 278 -30 62 -117 101 -176 80z
m56 -188 c1 -46 -22 -153 -36 -170 -6 -7 -7 -15 -3 -18 8 -9 10 -9 -124 -11
-121 -2 -118 -4 -69 52 11 12 17 22 13 22 -12 0 108 122 143 146 52 35 75 28
76 -21z m-370 -538 c8 3 14 0 14 -7 0 -7 7 -10 16 -6 8 3 13 2 10 -3 -3 -5 1
-12 9 -15 13 -5 12 -9 -6 -27 -11 -11 -27 -18 -35 -15 -8 3 -14 -1 -14 -8 0
-8 -8 -13 -17 -12 -13 2 -18 12 -18 37 -1 34 17 78 23 60 2 -6 10 -7 18 -4z
m-189 -84 c-4 -3 0 -17 8 -30 9 -13 11 -23 5 -23 -26 0 57 -80 97 -94 49 -16
118 -11 142 12 7 7 16 11 19 8 3 -3 -7 -17 -22 -31 -15 -14 -23 -25 -19 -25 4
0 -12 -11 -37 -24 -31 -16 -47 -20 -52 -12 -6 8 -8 8 -8 -1 0 -14 -62 -6 -71
9 -3 5 -10 10 -15 10 -23 2 -43 23 -33 34 7 8 6 15 -2 20 -8 4 -9 3 -5 -4 4
-7 3 -12 -2 -12 -6 0 -17 21 -26 47 -19 56 -19 53 -1 53 8 0 15 5 15 11 0 5
-4 7 -10 4 -5 -3 -10 -1 -10 5 0 7 7 10 14 7 10 -4 13 -1 9 8 -3 8 -10 12 -17
8 -6 -4 -5 1 3 10 7 9 16 17 19 17 3 0 2 -3 -1 -7z m-137 -3313 c0 -5 -4 -10
-10 -10 -5 0 -10 5 -10 10 0 6 5 10 10 10 6 0 10 -4 10 -10z"/>
<path d="M2303 3678 c-3 -6 -1 -8 5 -4 6 3 19 -5 30 -19 17 -22 21 -23 32 -10
11 13 10 14 -5 9 -12 -5 -16 -4 -11 4 6 11 -9 25 -31 28 -7 1 -16 -3 -20 -8z"/>
<path d="M2300 3656 c0 -2 7 -7 16 -10 8 -3 12 -2 9 4 -6 10 -25 14 -25 6z"/>
<path d="M2135 3520 c-3 -6 1 -7 9 -4 18 7 21 14 7 14 -6 0 -13 -4 -16 -10z"/>
<path d="M579 573 c-13 -16 -12 -17 4 -4 9 7 17 15 17 17 0 8 -8 3 -21 -13z"/>
<path d="M613 565 c0 -8 4 -12 9 -9 5 3 6 10 3 15 -9 13 -12 11 -12 -6z"/>
<path d="M673 565 c0 -8 4 -12 9 -9 5 3 6 10 3 15 -9 13 -12 11 -12 -6z"/>
<path d="M776 538 c3 -5 10 -6 15 -3 13 9 11 12 -6 12 -8 0 -12 -4 -9 -9z"/>
<path d="M835 531 c-3 -5 -2 -12 3 -15 5 -3 9 1 9 9 0 17 -3 19 -12 6z"/>
<path d="M725 520 c-3 -6 1 -7 9 -4 18 7 21 14 7 14 -6 0 -13 -4 -16 -10z"/>
<path d="M989 483 c-13 -17 -13 -17 6 -3 11 8 22 16 24 17 2 2 0 3 -6 3 -6 0
-17 -8 -24 -17z"/>
<path d="M1006 462 c-3 -5 1 -9 9 -9 8 0 12 4 9 9 -3 4 -7 8 -9 8 -2 0 -6 -4
-9 -8z"/>
<path d="M1036 347 c3 -10 9 -15 12 -12 3 3 0 11 -7 18 -10 9 -11 8 -5 -6z"/>
<path d="M1938 288 c6 -6 8 -18 5 -27 -4 -14 -3 -14 5 -1 18 27 17 33 -2 36
-13 2 -15 -1 -8 -8z"/>
<path d="M1420 286 c0 -2 8 -10 18 -17 15 -13 16 -12 3 4 -13 16 -21 21 -21
13z"/>
<path d="M1498 278 c-9 -5 -6 -7 9 -5 12 2 25 6 28 8 8 9 -23 6 -37 -3z"/>
<path d="M2986 278 c3 -4 11 -5 19 -1 21 7 19 12 -4 10 -11 0 -18 -5 -15 -9z"/>
<path d="M3146 278 c3 -4 9 -8 15 -8 5 0 9 4 9 8 0 5 -7 9 -15 9 -8 0 -12 -4
-9 -9z"/>
<path d="M3260 286 c0 -2 8 -10 18 -17 15 -13 16 -12 3 4 -13 16 -21 21 -21
13z"/>
<path d="M3335 280 c3 -5 8 -10 11 -10 2 0 4 5 4 10 0 6 -5 10 -11 10 -5 0 -7
-4 -4 -10z"/>
<path d="M1860 270 c-9 -6 -10 -10 -3 -10 6 0 15 5 18 10 8 12 4 12 -15 0z"/>
<path d="M3113 265 c0 -8 4 -12 9 -9 5 3 6 10 3 15 -9 13 -12 11 -12 -6z"/>
<path d="M1800 260 c-12 -7 -10 -9 8 -7 12 0 22 5 22 9 0 11 -12 10 -30 -2z"/>
<path d="M2140 260 c0 -5 5 -10 11 -10 5 0 7 5 4 10 -3 6 -8 10 -11 10 -2 0
-4 -4 -4 -10z"/>
<path d="M2868 263 c7 -3 16 -2 19 1 4 3 -2 6 -13 5 -11 0 -14 -3 -6 -6z"/>
<path d="M3035 260 c-3 -5 -1 -10 4 -10 6 0 11 5 11 10 0 6 -2 10 -4 10 -3 0
-8 -4 -11 -10z"/>
<path d="M2164 239 c-19 -22 -19 -22 4 -8 12 8 22 17 22 21 0 12 -6 9 -26 -13z"/>
<path d="M2830 256 c0 -2 8 -10 18 -17 15 -13 16 -12 3 4 -13 16 -21 21 -21
13z"/>
<path d="M2030 241 c14 -10 7 -16 -15 -11 -5 1 -6 -2 -2 -6 4 -4 14 -9 21 -10
18 -3 13 29 -5 34 -11 3 -11 1 1 -7z"/>
<path d="M2075 240 c-3 -5 -1 -10 4 -10 6 0 11 5 11 10 0 6 -2 10 -4 10 -3 0
-8 -4 -11 -10z"/>
<path d="M2130 231 c0 -7 -5 -9 -12 -5 -7 5 -8 3 -3 -5 5 -9 10 -10 18 -2 6 6
8 14 4 18 -4 3 -7 1 -7 -6z"/>
<path d="M2237 223 c-4 -3 -7 -11 -7 -17 0 -6 5 -5 12 2 6 6 9 14 7 17 -3 3
-9 2 -12 -2z"/>
<path d="M2350 216 c0 -3 9 -10 20 -16 11 -6 20 -8 20 -6 0 3 -9 10 -20 16
-11 6 -20 8 -20 6z"/>
<path d="M2835 209 c-4 -6 -5 -12 -2 -15 2 -3 7 2 10 11 7 17 1 20 -8 4z"/>
<path d="M2175 200 c3 -5 8 -10 11 -10 2 0 4 5 4 10 0 6 -5 10 -11 10 -5 0 -7
-4 -4 -10z"/>
<path d="M2280 200 c-9 -6 -10 -10 -3 -10 6 0 15 5 18 10 8 12 4 12 -15 0z"/>
<path d="M2416 193 c-6 -14 -5 -15 5 -6 7 7 10 15 7 18 -3 3 -9 -2 -12 -12z"/>
<path d="M2505 180 c3 -5 11 -10 16 -10 6 0 7 5 4 10 -3 6 -11 10 -16 10 -6 0
-7 -4 -4 -10z"/>
<path d="M2355 160 c3 -5 8 -10 11 -10 2 0 4 5 4 10 0 6 -5 10 -11 10 -5 0 -7
-4 -4 -10z"/>
<path d="M2455 160 c3 -5 8 -10 11 -10 2 0 4 5 4 10 0 6 -5 10 -11 10 -5 0 -7
-4 -4 -10z"/>
<path d="M2550 156 c7 -7 13 -7 20 0 6 6 3 10 -10 10 -13 0 -16 -4 -10 -10z"/>
<path d="M2710 116 c0 -2 8 -10 18 -17 15 -13 16 -12 3 4 -13 16 -21 21 -21
13z"/>
<path d="M2659 93 c-13 -16 -12 -17 4 -4 16 13 21 21 13 21 -2 0 -10 -8 -17
-17z"/>
</g>
</svg>
